/* XPM */
static char *ee7975760aad4dd7b7eb2f8a2330c4bdlTDzKJG3JlIBYGE0[] = {
/* columns rows colors chars-per-pixel */
"64 64 205 2 ",
"   c #030303",
".  c #0B0302",
"X  c #0D0008",
"o  c #0A0A0A",
"O  c #150202",
"+  c #140509",
"@  c #1D0A10",
"#  c #1A1818",
"$  c #220200",
"%  c #2B060B",
"&  c #230B0A",
"*  c #2B0B0A",
"=  c #39070D",
"-  c #2D100B",
";  c #370C10",
":  c #291818",
">  c #331614",
",  c #3A1312",
"<  c #3B1C1A",
"1  c #212118",
"2  c #37211A",
"3  c #242523",
"4  c #2A2327",
"5  c #3C2926",
"6  c #322D31",
"7  c #2E3A35",
"8  c #363636",
"9  c #4D0505",
"0  c #550B0D",
"q  c #5C090F",
"w  c #410C11",
"e  c #520E13",
"r  c #5A0B18",
"t  c #441716",
"y  c #60080C",
"u  c #680213",
"i  c #710710",
"p  c #452724",
"a  c #4F2B2B",
"s  c #542727",
"d  c #49342E",
"f  c #5A332E",
"g  c #4A3637",
"h  c #61362F",
"j  c #633739",
"k  c #713E3D",
"l  c #4B413A",
"z  c #3F3C40",
"x  c #414141",
"c  c #4B4B4B",
"v  c #534443",
"b  c #5D4947",
"n  c #584B51",
"m  c #5D5650",
"M  c #5A5A5A",
"N  c #784947",
"B  c #655D58",
"V  c #69605E",
"C  c #6E5E61",
"Z  c #6F6F6F",
"A  c #766363",
"S  c #7B7875",
"D  c #830D12",
"F  c #981C21",
"G  c #A51C24",
"H  c #8C2426",
"J  c #A0252D",
"K  c #AD2E33",
"L  c #B72C32",
"P  c #E51F2A",
"I  c #EC1D31",
"U  c #C02A2F",
"Y  c #DA2426",
"T  c #DB262B",
"R  c #C72E32",
"E  c #CB2B31",
"W  c #D72734",
"Q  c #DB2437",
"!  c #E32425",
"~  c #E92126",
"^  c #E4222A",
"/  c #E92329",
"(  c #804A46",
")  c #854A4E",
"_  c #8B5454",
"`  c #845856",
"'  c #8D5C58",
"]  c #935C59",
"[  c #876659",
"{  c #986564",
"}  c #806C70",
"|  c #867B7B",
" . c #A26A69",
".. c #AA7174",
"X. c #B57877",
"o. c #BA7B7D",
"O. c #C57D7C",
"+. c #87807D",
"@. c #93817D",
"#. c #8C8B88",
"$. c #939591",
"%. c #9C9593",
"&. c #9C9D9C",
"*. c #AE9192",
"=. c #A6A09D",
"-. c #A4A4A4",
";. c #ACA8A0",
":. c #ACAAA9",
">. c #B4A8A8",
",. c #BFB4AE",
"<. c #AFABB0",
"1. c #B9B9B9",
"2. c #C78587",
"3. c #CD8B8E",
"4. c #D38B8C",
"5. c #D88889",
"6. c #CB918A",
"7. c #D2918D",
"8. c #DA8E92",
"9. c #D49996",
"0. c #DC9A9D",
"q. c #E58F8F",
"w. c #F18A8E",
"e. c #FD8D8E",
"r. c #F5958E",
"t. c #FB938E",
"y. c #F3988F",
"u. c #F78F96",
"i. c #FD8E92",
"p. c #E39596",
"a. c #ED9495",
"s. c #EE9B97",
"d. c #E89799",
"f. c #E49B9B",
"g. c #EB999C",
"h. c #F69592",
"j. c #FB9392",
"k. c #F39996",
"l. c #FA9897",
"z. c #F49499",
"x. c #FB959A",
"c. c #F1999C",
"v. c #E6A29E",
"b. c #E99DA4",
"n. c #F293A0",
"m. c #C4BCB8",
"M. c #DEB9BC",
"N. c #E8A7A8",
"B. c #F1A7A7",
"V. c #E5B5B7",
"C. c #C4C2BC",
"Z. c #EABAC1",
"A. c #F2B8C4",
"S. c #ADC9D1",
"D. c #BBDCE6",
"F. c #B6DFE8",
"G. c #BCDEEB",
"H. c #BBDDF0",
"J. c #BCE0E6",
"K. c #B5E1EC",
"L. c #BDE0EC",
"P. c #C1C1C1",
"I. c #C6CDC5",
"U. c #CAC8CB",
"Y. c #D5C8C8",
"T. c #DBCDCD",
"R. c #C8CDDA",
"E. c #C3DCDF",
"W. c #CCD9DA",
"Q. c #D3D4D3",
"!. c #DBD3D4",
"~. c #D3D6DC",
"^. c #D9D7DA",
"/. c #E9C9CB",
"(. c #E9CBD1",
"). c #EACBD5",
"_. c #E2D3D7",
"`. c #D8E0D9",
"'. c #E1E9DE",
"]. c #CFD4E0",
"[. c #C2DCE4",
"{. c #CADBE3",
"}. c #C1DCEB",
"|. c #DFDFE0",
" X c #C0DCF0",
".X c #C2E0E3",
"XX c #DAE8E8",
"oX c #DFEFFB",
"OX c #DDF3FF",
"+X c #E2E2E2",
"@X c #E7E8E8",
"#X c #EEEDED",
"$X c #EEF0EF",
"%X c #E3F4FA",
"&X c #F4F4F4",
"*X c #FDF5F7",
"=X c #F6F9F6",
"-X c #FDFBF6",
";X c #F0F5F8",
":X c #FCF7FA",
">X c #F4FEFC",
",X c #FAFAFA",
"<X c #FDFDFD",
"1X c #FDFFFE",
"2X c #FFFFFF",
/* pixels */
"j.j.j.j.j.j.j.j.j.j.j.j.j.j.j.j.j.j.j.j.j.j.j.j.j.j.j.j.j.j.j.j.j.j.j.j.j.j.j.j.j.j.j.j.j.j.j.j.j.j.j.j.j.j.j.j.j.j.j.j.j.j.j.j.",
"j.j.j.j.j.j.j.j.j.j.j.j.j.j.j.j.j.j.j.j.j.j.j.j.j.j.j.j.j.j.j.j.j.j.j.j.j.j.j.j.j.j.j.j.j.j.j.j.j.j.j.j.j.j.j.j.j.j.j.j.j.j.j.j.",
"j.j.j.j.j.j.j.j.j.j.j.j.j.j.j.j.j.j.j.j.j.j.j.j.j.j.j.j.j.j.j.j.j.j.j.j.j.j.j.j.j.j.j.j.j.j.j.j.j.j.j.j.j.j.j.j.j.j.j.j.j.j.j.j.",
"j.j.j.j.j.j.j.j.j.j.j.j.j.j.j.j.j.j.j.j.j.j.j.j.j.j.j.j.j.j.j.j.j.j.j.j.j.j.j.j.j.j.j.j.j.j.j.j.j.j.j.j.j.j.j.j.j.j.j.j.j.j.j.j.",
"j.j.j.j.j.j.j.j.j.j.j.j.j.j.j.j.j.j.j.j.j.j.j.j.j.j.j.j.j.j.j.j.j.j.j.j.j.j.j.j.j.j.j.j.j.j.j.j.j.j.j.j.j.j.j.j.j.j.j.j.j.j.j.j.",
"j.j.j.j.j.j.j.j.j.j.j.j.j.j.j.j.j.j.j.j.j.j.j.j.j.j.j.j.j.i.j.k.h.j.j.j.j.j.j.j.j.j.j.j.j.j.j.j.j.j.j.j.j.j.j.j.j.j.j.j.j.j.j.j.",
"j.j.j.j.j.j.j.j.j.j.j.j.j.j.j.j.j.j.j.j.j.j.j.j.j.j.j.j.j.x.j   c.t.j.j.j.j.j.j.j.j.j.j.j.j.j.h.j.j.j.j.j.j.j.j.j.j.j.j.j.j.j.j.",
"j.j.j.j.j.j.j.j.j.j.j.j.j.j.j.j.j.j.j.j.j.j.j.j.j.j.j.i.5.  . b.q.t.j.j.j.j.j.j.t.j.O 4.t.h.j.j.j.j.j.j.j.j.j.j.j.j.j.j.j.j.j.j.",
"j.j.j.j.j.j.j.j.j.j.j.j.j.j.j.j.j.j.j.j.j.j.j.j.j.l.x.p   X g . p.k.j.j.j.j.j.j.t.( *.O 2.e.j.j.j.j.j.j.j.j.j.j.j.j.j.j.j.j.j.j.",
"j.j.j.j.j.j.j.j.j.j.j.j.j.j.j.j.j.j.j.j.j.j.j.j.j.j.$ 4     { r.t.j.j.j.j.j.j.h.j.0.  +   6.j.j.j.j.j.j.j.j.j.j.j.j.j.j.j.j.j.j.",
"j.j.j.j.j.j.j.j.j.j.j.j.j.j.j.j.j.j.j.j.j.j.j.j.j.t.[ . ` u.t.j.j.j.j.j.j.j.j.j.j.j.k 4 O . d.t.j.j.j.j.j.j.j.j.j.j.j.j.j.j.j.j.",
"j.j.j.j.j.j.j.j.j.j.j.j.j.j.j.j.j.j.j.j.j.j.j.j.j.t.k.j.j.j.j.j.j.j.j.j.j.j.j.j.j.j.i.: N { $ i.j.j.j.j.j.j.j.j.j.j.j.j.j.j.j.j.",
"j.j.j.j.j.j.j.j.j.j.j.j.j.j.j.j.j.j.j.j.j.j.j.j.j.j.j.j.j.j.j.j.j.j.j.j.j.j.j.j.j.j.t.x.& X.t.j.j.j.j.j.j.j.j.j.j.j.j.j.j.j.j.j.",
"j.j.j.j.j.j.j.j.j.j.j.j.j.j.j.j.j.j.j.j.j.j.j.j.j.j.j.h.h.j.i.t.j.j.j.j.j.j.j.j.j.j.j.j.x.e.j.j.j.j.j.j.j.j.j.j.j.j.j.j.j.j.j.j.",
"j.j.j.j.j.j.j.j.j.j.j.j.j.j.j.j.j.j.j.j.j.j.j.j.h.j.' B C.;.2 p.t.j.j.j.j.j.j.j.j.j.j.j.j.j.j.j.j.j.j.j.j.j.j.j.j.j.j.j.j.j.j.j.",
"j.j.j.j.j.j.j.j.j.j.j.j.j.j.j.j.j.j.j.j.j.j.j.j.d.S 1X1X1X1X1X=X' e.j.j.j.j.p.a - j d.t.j.j.j.j.j.j.j.j.j.j.j.j.j.j.j.j.j.j.j.j.",
"j.j.j.j.j.j.j.j.j.j.j.j.j.j.j.j.j.j.j.j.j.j.j.p.Q.1X1X1X1X1X1X1X1X3.j.j.z.d 1X:X1X:X>Xp y.j.k.j.j.j.j.j.j.j.j.j.j.j.j.j.j.j.j.j.",
"j.j.j.j.j.j.j.j.j.j.j.j.j.j.j.j.j.j.j.j.j.j.a.=.1X1X1X1X1X1X1X1X1X} x.g.m.1X1X1X1X1X1X,Xd h.h.j.j.j.j.j.j.j.j.j.j.j.j.j.j.j.j.j.",
"j.j.j.j.j.j.j.j.j.j.j.j.j.j.j.j.j.j.j.t.j.t.s >X1X1XP.    8 ,X1X1X>X0.m.1X1X1X1X1X1X1X1X1X..t.j.j.j.j.j.j.j.j.j.j.j.j.j.j.j.j.j.",
"j.j.j.j.j.j.j.j.j.j.j.j.j.j.j.j.j.j.j.t.j.h.'.1X1X1.        c 1X1X1X@ >X-X&X#   M 1X1X1X1X@.h.h.j.j.j.j.j.j.j.j.j.j.j.j.j.j.j.j.",
"j.j.j.j.j.j.j.j.j.j.j.j.j.j.j.j.j.j.j.j.j.X.1X1X1X    1.,X,X  ,X1X&X1X1X&X        8 1X1X1X=Xg.j.j.j.j.j.j.j.j.j.j.j.j.j.j.j.j.j.",
"j.j.j.j.j.j.j.j.j.j.j.j.j.j.j.j.j.j.j.j.j.> 1X1X&X    1X1X1X^.1X1Xc 1X1X    -.1X1Xo 1X1X1X:Xo.j.j.j.j.j.j.j.j.j.j.j.j.j.j.j.j.j.",
"j.j.j.j.j.j.j.j.j.j.j.j.j.j.j.j.j.j.j.j.i.#.1X1XQ.  o 1X1X1X^.1X,X#.1X1X    1X1X1X#X&X1X1X1X_ j.j.j.j.j.j.j.j.j.j.j.j.j.j.j.j.j.",
"j.j.j.j.j.j.j.j.j.j.j.j.j.j.j.j.j.j.j.j.j.I.1X1X@X,X-.P.1X,Xo 1X1X&X1X1X    1X1X1X+X&X1X1X:X] j.j.j.j.j.j.j.j.j.j.j.j.j.j.j.j.j.",
"j.j.j.j.j.j.j.j.j.j.j.j.j.j.j.j.j.j.j.j.i.I.1X1X,Xx         S ,X1X1X1X1X  &.# &X@X  :X1X1X1X2.j.j.j.j.j.j.j.j.j.j.j.j.j.j.j.j.j.",
"j.j.j.j.j.j.j.j.j.j.j.j.j.j.j.j.j.j.j.j.j.+.1X1X1XU.      3 1X1X1X1X1X1X  1XM     # 1X1X1X1Xk.h.j.j.j.j.j.j.j.j.j.j.j.j.j.j.j.j.",
"j.j.j.j.j.j.j.j.j.j.j.j.j.j.j.j.j.j.j.j.j.< 1X1X1X1X,X1.#X1X1X1X,X1X1X1XU.        ,X1X1X1X$.k.h.j.j.j.j.j.j.j.j.j.j.j.j.j.j.j.j.",
"j.j.j.j.j.j.j.j.j.j.j.j.j.j.j.j.j.j.j.j.j.7.1X1X1X1X1X1X1X1X1X1X#XY.1X1X,X&XZ :.,X1X1X1X1XN i.j.j.j.j.j.j.j.j.j.j.j.j.j.j.j.j.j.",
"j.j.j.j.j.j.j.j.j.j.j.j.j.j.j.j.j.j.j.j.h.j.C 1X1X1X1X1X1X1X1X>X{ 5 1X1X1X1X1X1X1X1X1X1XT.z.e.j.j.j.j.j.j.j.j.j.j.j.j.j.j.j.j.j.",
"j.j.j.j.j.j.j.j.j.j.j.j.j.j.j.j.j.j.j.j.h.j.g.`.1X1X1X1X1X:X1Xk h.9.>X1X1X1X1X1X1X1X1X>X..j.j.j.j.j.j.j.j.j.j.j.j.j.j.j.j.j.j.j.",
"j.j.j.j.j.j.j.j.j.j.j.j.j.j.j.j.j.j.j.j.i.h.j.p.| 1X1X1X1X=.o.t.j.e.5 1X1X1X1X1X1X1X>Xh t.j.j.j.j.j.j.j.j.j.j.j.j.j.j.j.j.j.j.j.",
"j.j.j.j.j.j.j.j.j.j.j.j.j.j.j.j.j.j.j.j.x.s.j.j.z.9.N k 7.z.i.j.j.j.h.2 :X1X1X1X1X@X_ h.j.j.j.j.j.j.j.j.j.j.j.j.j.j.j.j.j.j.j.j.",
"j.j.j.j.j.j.j.j.j.j.j.j.j.j.j.j.j.t.j.h.t x.t.j.k.j.j.j.j.j.j.j.j.j.h.j.3.< S m f h.j.j.j.j.j.j.j.j.j.j.j.j.j.j.j.j.j.j.j.j.j.j.",
"j.j.j.j.j.j.j.j.j.j.j.j.j.j.j.j.j.k.4.b Y.5.i.y.t.j.j.t.j.j.h.j.j.j.j.j.k.j.i.j.i.j.j.z.k.j.j.j.j.j.j.j.j.j.j.j.j.j.j.j.j.j.j.j.",
"j.j.j.j.j.j.j.j.j.j.j.j.j.j.j.j.z.k.) ,X@X=XN k.t.j.h.t.t.t.t.j.j.j.j.j.j.j.j.t.r.j.i.u.d.j.j.j.j.j.j.j.j.j.j.j.j.j.j.j.j.j.j.j.",
"j.j.j.j.j.j.j.j.j.j.j.j.j.j.j.j.j.h.c.,X+.1X1Xv f.j.j.k.j.j.j.j.j.j.j.j.j.j.j.j.t.t.x.`  .i.h.j.j.j.j.j.j.j.j.j.j.j.j.j.j.j.j.j.",
"j.j.j.j.j.j.j.j.j.j.j.j.j.j.j.j.j.j.h.v 7 1X1Xz *X5 8.t.t.j.h.j.j.j.j.j.j.j.j.e.c.j m.1X:.f.z.i.j.j.j.j.j.j.j.j.j.j.j.j.j.j.j.j.",
"j.j.j.j.j.j.j.j.j.j.j.j.j.j.j.j.j.j.t.o.S 1X1X&.1X1X>X6 g a ] o.3.8.8.4.O. .a A XX1X1X>X) z.X.w.j.j.j.j.j.j.j.j.j.j.j.j.j.j.j.j.",
"j.j.j.j.j.j.j.j.j.j.j.j.j.j.j.j.j.j.j.h.= 1 :X,X1X1X1XS 1X1X:X3 ,X,X-X-X|.1X1X1X#X1X:Xt h.t.j.j.j.j.j.j.j.j.j.j.j.j.j.j.j.j.j.j.",
"j.j.j.j.j.j.j.j.j.j.j.j.j.j.j.j.j.j.j.j.[ u , >.1X1X:XQ.1X1X1X$.1X1X1X1X$X1X1X1X&X1Xl h.j.j.j.j.j.j.j.j.j.j.j.j.j.j.j.j.j.j.j.j.",
"j.j.j.j.j.j.j.j.j.j.j.j.j.j.j.j.j.j.j.j.b.% y e % U.1X-X1X1X>X&X1X1X1X-X,X1X1X:X:X#.z.j.j.j.j.j.j.j.j.j.j.j.j.j.j.j.j.j.j.j.j.j.",
"j.j.j.j.j.j.j.j.j.j.j.j.j.j.j.j.j.j.j.j.~.S.t q e 0 ; n #X1X*X,X1X1X1X:X1X-X@XV . a.l.j.j.j.j.j.j.j.j.j.j.j.j.j.j.j.j.j.j.j.j.j.",
"j.j.j.j.j.j.j.j.j.j.j.j.j.j.j.j.j.j.j.j.G.D.6 r q i U R K 0 > % % % % * w e r = x.j.j.j.j.j.j.j.j.j.j.j.j.j.j.j.j.j.j.j.j.j.j.j.",
"j.j.j.j.j.j.j.j.j.j.j.j.j.j.j.j.j.j.j.j.[.G.G.@ L T ^ ~ ~ T G F E T T W D 0 & _.t.k.j.j.j.j.j.j.j.j.j.j.j.j.j.j.j.j.j.j.j.j.j.j.",
"j.j.j.j.j.j.j.j.j.j.j.j.j.j.j.j.j.j.j.j.A.G.G.D.9 T ~ ^ ^ ^ Y ! ! ! ! ~ R : D.}.j.j.j.j.j.j.j.j.j.j.j.j.j.j.j.j.j.j.j.j.j.j.j.j.",
"j.j.j.j.j.j.j.j.j.j.j.j.j.j.j.j.j.j.j.j.j.^.L.G.[.> R / ^ ^ ^ ! ~ ^ P H <.G.}.(.j.k.j.j.j.j.j.j.j.j.j.j.j.j.j.j.j.j.j.j.j.j.j.j.",
"j.j.j.j.j.j.j.j.j.j.j.j.j.j.j.j.j.j.j.j.j.~.}.G.}.L.R., H W I Q J 9 %.[.G.G.V.j.t.j.j.j.j.j.j.j.j.j.j.j.j.j.j.j.j.j.j.j.j.j.j.j.",
"j.j.j.j.j.j.j.j.j.j.j.j.j.j.j.j.j.j.j.j.j.W.G.G.G.G.K.}.D..X{.{.D.K.G.K.G.!.e.j.j.j.j.j.j.j.j.j.j.j.j.j.j.j.j.j.j.j.j.j.j.j.j.j.",
"j.j.j.j.j.j.j.j.j.j.j.j.j.j.j.j.j.j.j.j.t.~.G.G.G.G.G.G.G.G.G.G.G.G.G.H.K.).t.j.j.j.j.j.j.j.j.j.j.j.j.j.j.j.j.j.j.j.j.j.j.j.j.j.",
"j.j.j.j.j.j.j.j.j.j.j.j.j.j.j.j.j.j.j.j.j.(.L.G.G.G.G.G.G.G.G.G.G.G.E.^./.s.t.j.j.j.j.j.j.j.j.j.j.j.j.j.j.j.j.j.j.j.j.j.j.j.j.j.",
"j.j.j.j.j.j.j.j.j.j.j.j.j.j.j.j.j.j.j.j.j.v.%XF.G.G.G.G.G.G.G.G.G.G.n.j.t.j.j.j.j.j.j.j.j.j.j.j.j.j.j.j.j.j.j.j.j.j.j.j.j.j.j.j.",
"j.j.j.j.j.j.j.j.j.j.j.j.j.j.j.j.j.j.j.j.j.j.N.{.G.G.G.G.K.}.].}. X).t.j.j.j.j.j.j.j.j.j.j.j.j.j.j.j.j.j.j.j.j.j.j.j.j.j.j.j.j.j.",
"j.j.j.j.j.j.j.j.j.j.j.j.j.j.j.j.j.j.j.j.j.j.t.Y.G.G.G.G.G.^.j.+X;Xc.j.j.j.j.j.j.j.j.j.j.j.j.j.j.j.j.j.j.j.j.j.j.j.j.j.j.j.j.j.j.",
"j.j.j.j.j.j.j.j.j.j.j.j.j.j.j.j.j.j.j.j.j.j.j.T.G.G.M.XX%XN.t.h.z.j.j.j.j.j.j.j.j.j.j.j.j.j.j.j.j.j.j.j.j.j.j.j.j.j.j.j.j.j.j.j.",
"j.j.j.j.j.j.j.j.j.j.j.j.j.j.j.j.j.j.j.j.j.j.j.W.G.G.c.N.B.j.h.j.t.j.j.j.j.j.j.j.j.j.j.j.j.j.j.j.j.j.j.j.j.j.j.j.j.j.j.j.j.j.j.j.",
"j.j.j.j.j.j.j.j.j.j.j.j.j.j.j.j.j.j.j.j.j.j.a.J.G.D.h.j.j.j.j.j.j.j.j.j.j.j.j.j.j.j.j.j.j.j.j.j.j.j.j.j.j.j.j.j.j.j.j.j.j.j.j.j.",
"j.j.j.j.j.j.j.j.j.j.j.j.j.j.j.j.j.j.j.j.j.t.V.G.D.[.h.j.j.j.j.j.j.j.j.j.j.j.j.j.j.j.j.j.j.j.j.j.j.j.j.j.j.j.j.j.j.j.j.j.j.j.j.j.",
"j.j.j.j.j.j.j.j.j.j.j.j.j.j.j.j.j.j.j.j.h.j.!.OXG.E.e.j.j.j.j.j.j.j.j.j.j.j.j.j.j.j.j.j.j.j.j.j.j.j.j.j.j.j.j.j.j.j.j.j.j.j.j.j.",
"j.j.j.j.j.j.j.j.j.j.j.j.j.j.j.j.j.j.j.j.r.j.W.1XG.^.t.j.j.j.j.j.j.j.j.j.j.j.j.j.j.j.j.j.j.j.j.j.j.j.j.j.j.j.j.j.j.j.j.j.j.j.j.j.",
"j.j.j.j.j.j.j.j.j.j.j.j.j.j.j.j.j.j.j.j.t.j.{.oXG.Z.t.j.j.j.j.j.j.j.j.j.j.j.j.j.j.j.j.j.j.j.j.j.j.j.j.j.j.j.j.j.j.j.j.j.j.j.j.j.",
"j.j.j.j.j.j.j.j.j.j.j.j.j.j.j.j.j.j.j.j.t.j./.{.(.s.j.k.j.j.j.j.j.j.j.j.j.j.j.j.j.j.j.j.j.j.j.j.j.j.j.j.j.j.j.j.j.j.j.j.j.j.j.j.",
"j.j.j.j.j.j.j.j.j.j.j.j.j.j.j.j.j.j.j.j.t.k.j.j.t.j.x.h.j.j.j.j.j.j.j.j.j.j.j.j.j.j.j.j.j.j.j.j.j.j.j.j.j.j.j.j.j.j.j.j.j.j.j.j.",
"j.j.j.j.j.j.j.j.j.j.j.j.j.j.j.j.j.j.j.j.j.j.j.j.j.j.j.j.j.j.j.j.j.j.j.j.j.j.j.j.j.j.j.j.j.j.j.j.j.j.j.j.j.j.j.j.j.j.j.j.j.j.j.j.",
"j.j.j.j.j.j.j.j.j.j.j.j.j.j.j.j.j.j.j.j.j.j.j.j.j.j.j.j.j.j.j.j.j.j.j.j.j.j.j.j.j.j.j.j.j.j.j.j.j.j.j.j.j.j.j.j.j.j.j.j.j.j.j.j."
};
