/* XPM */
static char *_3e32402be6c4403d54aa5c27eab8690JcL7knWFgMW5CLK3[] = {
/* columns rows colors chars-per-pixel */
"64 64 216 2 ",
"   c #010101",
".  c #0A0504",
"X  c #080706",
"o  c #08060A",
"O  c #0C0B0C",
"+  c #1C0A04",
"@  c #120C0B",
"#  c #1C0A0A",
"$  c #12110E",
"%  c #1B120E",
"&  c #180E13",
"*  c #191716",
"=  c #1D1B15",
"-  c #1A1219",
";  c #220D07",
":  c #26140B",
">  c #30140C",
",  c #261B17",
"<  c #24141A",
"1  c #301914",
"2  c #29221B",
"3  c #34231A",
"4  c #3B241A",
"5  c #3C0C23",
"6  c #2D1C24",
"7  c #202020",
"8  c #2D2B23",
"9  c #362726",
"0  c #3A2B23",
"q  c #2F302C",
"w  c #343029",
"e  c #3B322C",
"r  c #3B2D34",
"t  c gray20",
"y  c #3A3632",
"u  c #3C3C3D",
"i  c #432817",
"p  c #62361C",
"a  c #4D1A32",
"s  c #422D24",
"d  c #472B28",
"f  c #4C3425",
"g  c #45352B",
"h  c #453A2D",
"j  c #513625",
"k  c #553928",
"l  c #5A3C2B",
"z  c #523E32",
"x  c #49453B",
"c  c #56483A",
"v  c #5D4C3C",
"b  c #5C593F",
"n  c #67452F",
"m  c #72472C",
"M  c #664936",
"N  c #684A38",
"B  c #744D36",
"V  c #6E503E",
"C  c #7C5236",
"Z  c #7C563D",
"A  c #4A4847",
"S  c #4B4549",
"D  c #5A4D41",
"F  c #59474C",
"G  c #585647",
"H  c #545657",
"J  c #6A4F40",
"K  c #685648",
"L  c #605C4B",
"P  c #795B4A",
"I  c #6A4954",
"U  c #665C58",
"Y  c #79614C",
"T  c #6A6457",
"R  c #736C5C",
"E  c #796A5D",
"W  c #7E4760",
"Q  c #7B5769",
"!  c #6D6A63",
"~  c #706A68",
"^  c #797566",
"/  c #79797A",
"(  c #885837",
")  c #865A3B",
"_  c #8A5E42",
"`  c #8A6145",
"'  c #89644C",
"]  c #9D6945",
"[  c #976749",
"{  c #946A4C",
"}  c #876958",
"|  c #936B52",
" . c #9A6D51",
".. c #8E7053",
"X. c #94715E",
"o. c #A86F4B",
"O. c #A1704E",
"+. c #AC764F",
"@. c #A77756",
"#. c #AB7652",
"$. c #A3775B",
"%. c #A3785B",
"&. c #B27956",
"*. c #B87D55",
"=. c #B07B5C",
"-. c #8D536E",
";. c #8C556F",
":. c #A9577D",
">. c #817C65",
",. c #837C6A",
"<. c #997865",
"1. c #926474",
"2. c #8E747E",
"3. c #A47D62",
"4. c #B6815C",
"5. c #BD845B",
"6. c #888474",
"7. c #938A78",
"8. c #95917A",
"9. c #9B977C",
"0. c #AB8066",
"q. c #B38567",
"w. c #BD8C69",
"e. c #BF906E",
"r. c #A39C7C",
"t. c #BE947B",
"y. c #C7875C",
"u. c #C68B64",
"i. c #C58C64",
"p. c #C98F69",
"a. c #CD9266",
"s. c #C79169",
"d. c #CB926A",
"f. c #D79767",
"g. c #DA9766",
"h. c #D59967",
"j. c #D6976B",
"k. c #D9976A",
"l. c #D5986B",
"z. c #D9996C",
"x. c #C99876",
"c. c #D49973",
"v. c #D49A72",
"b. c #9B6A82",
"n. c #BB6F92",
"m. c #BC6F93",
"M. c #CB76A0",
"N. c #D87EA7",
"B. c #8C8787",
"V. c #9A9786",
"C. c #939190",
"Z. c #9B999A",
"A. c #A29D85",
"S. c #B38F9E",
"D. c #BE909C",
"F. c #AEA789",
"G. c #B0AC8B",
"H. c #AFB08E",
"J. c #ACA691",
"K. c #BEB796",
"L. c #B7B398",
"P. c #A4A4A4",
"I. c #A9A9A7",
"U. c #ABABAB",
"Y. c #B6ADA8",
"T. c #BAB7A4",
"R. c #B3B0AF",
"E. c #B3B2B2",
"W. c #B9B6B5",
"Q. c gray",
"!. c #C4BC9D",
"~. c #D291AD",
"^. c #DD88B0",
"/. c #E481AF",
"(. c #E88AB5",
"). c #EA95BE",
"_. c #F194BE",
"`. c #C5BFA4",
"'. c #C9C19C",
"]. c #CBC3A1",
"[. c #C8C3A7",
"{. c #D4CAAA",
"}. c #D9D2AD",
"|. c #CAC6B4",
" X c #D3CDB2",
".X c #D9D4B7",
"XX c #E3DCB6",
"oX c #E5DDBC",
"OX c #E7E0BE",
"+X c #EBE3BB",
"@X c #F58CC0",
"#X c #F493C2",
"$X c #FD94C5",
"%X c #F599C4",
"&X c #C9C8C5",
"*X c #CACACA",
"=X c #D2D0CB",
"-X c #D9D9D9",
";X c #E1DBC1",
":X c #EAE2C4",
">X c #EDE7C5",
",X c #F2EBC2",
"<X c #F5EEC9",
"1X c #FBF3C6",
"2X c #FEF5CA",
"3X c #FAF4CC",
"4X c #E2E1DD",
"5X c #FCF6D2",
"6X c #FAF6D4",
"7X c #E3E3E3",
"8X c #EBEBEB",
"9X c #EEEFF0",
"0X c #F5F5F5",
"qX c #F6FCF9",
"wX c #FDFEFD",
"eX c white",
/* pixels */
"j.j.j.j.j.j.j.j.j.j.j.j.j.j.j.j.j.j.j.j.j.j.j.j.j.j.j.j.j.j.j.j.j.j.j.j.j.j.j.j.j.j.j.j.j.j.j.j.j.j.j.j.j.j.j.j.j.j.j.j.j.j.j.j.",
"j.j.j.j.j.j.j.j.j.j.j.j.j.j.j.j.j.j.j.j.j.j.j.j.j.j.j.j.j.j.j.j.j.j.j.j.j.j.j.j.j.j.j.j.j.j.j.j.j.j.j.j.j.j.j.j.j.j.j.j.j.j.j.j.",
"j.j.j.j.j.j.j.j.j.j.j.j.j.j.j.j.j.j.j.j.j.j.j.j.j.j.j.j.j.j.j.j.j.j.j.j.j.j.j.j.j.j.j.j.j.j.j.j.j.j.j.j.j.j.j.j.j.j.j.j.j.j.j.j.",
"j.j.j.j.j.j.j.j.j.j.j.j.j.j.j.j.j.j.j.j.j.j.j.j.j.j.j.j.j.j.j.j.j.j.j.j.j.j.j.j.j.j.j.j.j.j.j.j.j.j.j.j.j.j.j.j.j.j.j.j.j.j.j.j.",
"j.j.j.j.j.j.j.j.j.j.j.j.j.j.j.j.j.j.j.z.c.c.j.j.j.j.j.j.j.j.j.j.j.j.j.j.j.j.j.j.j.j.j.j.j.j.j.j.j.j.j.j.j.j.j.j.j.j.j.j.j.j.j.j.",
"j.j.j.j.j.j.j.j.j.j.j.j.j.j.j.j.j.j.j.l : : , 0 q.j.j.j.j.j.j.j.j.j.j.j.j.j.j.j.j.j.j.j.j.j.j.j.j.j.j.j.j.j.j.j.j.j.j.j.j.j.j.j.",
"j.j.j.j.j.j.j.j.j.j.j.j.j.j.j.j.j.j.#.n j.j.j.w.f n j.j.j.j.j.j.j.j.j.j.j.j.j.j.j.j.j.j.j.j.j.j.j.j.j.j.j.j.j.j.j.j.j.j.j.j.j.j.",
"j.j.j.j.j.j.j.j.j.j.j.j.j.j.j.j.j.k.%._ j.j.j.j.a.+ [ j.j.j.j.j.j.j.j.j.j.j.j.j.j.j.j.j.j.j.j.j.j.j.j.j.j.j.j.j.j.j.j.j.j.j.j.j.",
"j.j.j.j.j.j.j.j.j.j.j.j.j.j.j.j.j.j.c #.j.j.j.j.j.c.f j.j.j.j.j.j.j.j.j.j.j.j.j.j.j.j.j.j.j.j.j.j.j.j.j.j.j.j.j.j.j.j.j.j.j.j.j.",
"j.j.j.j.j.j.j.j.j.j.j.j.j.j.j.j.j.l.3 l.j.o.5.j.j.h.f j.j.j.j.j.j.j.j.j.j.j.j.j.j.j.j.j.j.j.j.j.j.j.j.j.j.j.j.j.j.j.j.j.j.j.j.j.",
"j.j.j.j.j.j.j.j.j.j.j.j.j.j.j.j.j.l.4 l.k.e.q.j.j.l.k j.j.j.j.j.j.j.j.j.j.j.j.j.j.j.j.j.j.j.j.j.j.j.j.j.j.y.u.a.j.j.j.j.j.j.j.j.",
"j.j.j.j.j.j.j.j.j.j.j.j.j.j.j.j.j.l.4 l.j.c.i j.j.D +.j.j.j.j.j.j.j.j.j.j.j.j.j.j.j.j.j.j.j.j.j.j.j.j.Z V J N N C z.j.j.j.j.j.j.",
"j.j.j.j.j.j.j.j.j.j.j.j.j.j.j.j.j.z.j c.j.c.x.j.w.B j.j.j.j.j.j.j.j.j.j.j.j.j.j.j.j.j.j.j.j.j.j.l.c.h q.5.j.j.y.+ C j.j.j.j.j.j.",
"j.j.j.j.j.j.j.j.j.j.j.j.j.j.j.j.j.g.3.d.j.j.j.j.Z j.j.j.j.j.j.j.j.j.j.j.j.j.j.j.j.j.j.j.j.j.j.j.d.V &.j.j.j.j.j.p.M a.j.j.j.j.j.",
"j.j.j.j.j.j.j.j.j.j.j.j.j.j.j.j.j.j.x.i.j.j.j.f.p.j.j.j.j.j.j.j.j.j.j.j.j.j.j.j.j.j.j.j.j.j.j.c.t.5.l.j.j.j.j.j.a.s 5.j.j.j.j.j.",
"j.j.j.j.j.j.j.j.j.j.j.j.j.j.j.j.j.l.i.5.j.j.j.j.j.j.j.j.j.j.j.j.j.j.j.j.j.j.j.j.j.j.j.j.j.j.j.c.h.j.j.j.j.j.j.k.4.N j.j.j.j.j.j.",
"j.j.j.j.j.j.j.j.j.j.j.j.j.j.j.j.j.j.j.j.j.j.j.j.j.j.j.j.j.j.j.j.j.j.j.j.j.j.j.j.j.j.j.j.j.j.j.j.j.j.[ c.j.j.j.{ 4 d.j.j.j.j.j.j.",
"j.j.j.j.j.j.j.j.j.j.j.j.j.j.j.j.j.j.j.j.j.j.j.j.j.j.j.j.j.j.j.j.l.j.j.j.j.j.j.j.j.j.j.j.j.j.j.j.j. .` c.j.j.<.N u.j.j.j.j.j.j.j.",
"j.j.j.j.j.j.j.j.j.j.j.j.j.j.j.j.j.j.j.j.j.j.j.j.j.j.j.j.d.j.l.| [ j.u.a.j.j.j.j.j.j.j.j.j.j.j.j.f.x.c.d.$.s n l.k.j.j.j.j.j.j.j.",
"j.j.j.j.j.j.j.j.j.j.j.j.j.j.j.j.j.j.j.j.j.j.j.j.j.j.j.c.z c.l.s { d.B a.j.j.l.*.l.l.c.j.j.j.j.j.k.3.l Z _ s.j.j.j.j.j.j.j.j.j.j.",
"j.j.j.j.j.j.j.j.j.j.j.j.j.j.j.j.j.j.j.j.j.j.j.j.j.j.j.g.. o . . . o M l.j.k.a.c d.$.P j.j.i k.*.x.k.l.j.j.j.j.j.j.j.j.j.j.j.j.j.",
"j.j.j.j.j.j.j.j.j.j.j.j.j.j.j.j.j.j.j.j.j.j.j.j.j.j.5.} / wXwXwXwX9X~ ` f.j.w.. U ! e ) n @.j.j.j.j.j.j.j.j.j.j.j.j.j.j.j.j.j.j.",
"j.j.j.j.j.j.j.j.j.j.j.j.j.j.j.j.j.j.j.j.j.j.j.j.j.z.P I.wXwXwXwXwXwXwX*Xl M ^ *X0XwX-X&X. O.j.j.j.j.j.j.j.j.j.j.j.j.j.j.j.j.j.j.",
"j.j.j.j.j.j.j.j.j.j.j.j.j.j.j.j.j.j.j.j.j.j.j.j.j.q./ wXwXwXwXwXwXwXwXwXA P.wXwXwXwXwXwX*X0 l.j.j.j.j.j.j.j.j.j.j.j.j.j.j.j.j.j.",
"j.j.j.j.j.j.j.j.j.j.j.j.j.j.j.j.j.j.j.j.j.j.j.j.j., 0XwXwXwXwXwXwXwXwXwXQ.P.wXwXwXwXwXwXwXI.C j.j.j.j.j.j.j.j.j.j.j.j.j.j.j.j.j.",
"j.j.j.j.j.j.j.j.j.j.j.j.j.j.j.j.j.k.j.j.j.j.j.j.j.o wXwXwXB.O O W.wXwXwX7X-X0X7 o A wXwXwXwX, j.j.j.j.j.j.j.j.j.j.j.j.j.j.j.j.j.",
"j.j.j.j.j.j.j.j.j.j.k.c.[ ' v v K K } ` x.j.k.j.l.o wXwXwX/     E.wXwXwX0X8X0X    t wXwXwXwX9 l.j.j.j.j.j.j.j.j.j.j.j.j.j.j.j.j.",
"j.j.j.j.j.j.j.l.j.j.i.0 6.K.].,X,X}.K.K.0 Z j.l.f.. wXwXwX-X* u 8XwXwXwX*XW.0XX   t wXwXwXwX2 j.j.j.j.j.j.j.j.j.j.j.j.j.j.j.j.j.",
"j.j.j.j.j.j.j.j.l.w.2 r.2X2X2X2X1X1X1X2X2XA.v u.l.d 7XwXwXwXwXwXwXwXwXwXQ.E.wXwXwXwXwXwXwXwX1 k.j.j.j.j.j.j.j.j.j.j.j.j.j.j.j.j.",
"j.j.j.j.j.j.j.k.4.h XX1X1X2X2X2X1X1X1X1X1X2XA.3 $.l.U 8XwXwXwXwXwXwXwXwXH *XwXwXwXwXwXwXwXZ._ j.j.j.j.j.j.j.j.j.j.j.j.j.j.j.j.j.",
"j.j.j.j.j.j.j.j...F.1X1X1X1X2X2X1X1X1X1X1X1X1XOX! X.[ C.wXwXwXwXwXwXqXy  .B.wXwXwXwXwXwXP.| l.j.g.j.j.k.l.j.j.j.j.j.j.j.j.j.j.j.",
"j.j.j.j.j.j.j.f.G 2X1X1X1X1X2X2X1X1X1X1X1X1X1X2X1Xb K i u E.E.&XW.Y.K u.l.@.g R.E.Q.E.Y.P c.l.4.[ 3.{ d.k.j.j.j.j.j.j.j.j.j.j.j.",
"j.j.j.j.j.j.j.%.R 1X1X1X1X1X1X2X1X1X1X2X1X1X1X2X2X2XXXG.2 . } 0. .<.P k j B t.{ [ $.[ ] f.x.f ,.G.!.G.e [ j.j.j.j.j.j.j.j.j.j.j.",
"j.j.j.j.j.j.j.; <X1X1X1X1X1X2X2X2X1X3X,.1X1X1X1X2X2X1X2X2X:X2 * O 5 m._.m.a < & - < s 1 @ = 3X2X1X2X2XXX% =.j.j.j.j.j.j.j.j.j.j.",
"j.j.j.j.j.j.j.+ 2X1X1X1X2X2X2X2X3X9.T 9.1X2X1X1X1X1X2X2X2X2X1X<XU $X$X$X$X$X$X$X$X#Xn.r F.1X2X1X2X1X1X1X}.^ ' l.j.j.j.j.j.j.j.j.",
"j.j.j.j.j.j.l.; 3X1X1X1X2X2X2X1X3X8   V.1X1X1X1X1X1X1X2X2X2X2X2X>.#X$X$X$X$X$X$X$X$X$X% 1X1X1X1X1X1X1X1X1X1X7.O.l.j.j.j.j.j.j.j.",
"j.j.j.j.j.j.j.{ >.2X2X2X1X1X1X1X1X5X    T.}.1X1X1X1X2X1X1X1X2X2X2XF (.$X$X$X$X$X$X$X1.3X1X1X1X1X1X1X2X1X1X1X{.v k.j.j.j.j.j.j.j.",
"j.j.j.j.j.j.j.l.G 2X2X2X1X1X1X1X1X1X.     8  X1X1X1X2X2X1X1X1X1X1X<XD.@X$X$X$X$X$X~.`.1X1X1X1X1X2X1X1X1X2X1X1XR #.l.j.j.j.j.j.j.",
"j.j.j.j.j.j.j.j.Y oX2X2X1X1X1X1X1X1X`.        8 <X1X1X2X1X1X1X1X1X2X2X8 #X@X#X#Xd 5X1X2X1X1X1X1X1X6X2X1X1X1X1X5X# l.j.j.j.j.j.j.",
"j.j.j.j.j.j.j.l.O.r.2X2X2X1X1X1X1X1X].O           6.L.1X1X1X1X1X1X1X2X1X9.E R 8.,X1X2X2X2X1X1X2X5XT R 1X2X1X1X5X@ c.j.j.j.j.j.j.",
"j.j.j.j.j.j.j.j.a.h 5X1X1X1X1X1X2X1X1XG             $ 8 L 3X3X1X2X2X2X1X1X2X1X1X2X1X1X2X1X1X.Xw q   V.<X1X1X1X2X@ l.j.j.j.j.j.j.",
"j.j.j.j.j.j.j.j.j.c.8 XX1X1X1X1X2X2X2X6.                    . |.[.].}.1X2X2X2X1X}.].].[.!         $ '.2X2X1X1X>X; l.j.j.j.j.j.j.",
"j.j.j.j.j.j.j.j.j.j.] h +X1X1X1X1X2X1X2X                      P.I.Z.R.=X^ &X4XU.q                 L 1X1X1X1X1X^ ] j.j.j.j.j.j.j.",
"j.j.j.j.j.j.j.j.j.j.l.B G 2X2X1X1X1X1X1X X                    wXwXwXwXwX4XwXwXwXwX              o 1X1X1X1X1X:Xz j.j.j.j.j.j.j.j.",
"j.j.j.j.j.j.j.j.j.j.j.j.V 8.1X1X1X1X1X1X1Xy                 . wXwXwXwXZ.wXwXwXwXU.              '.1X1X1X1X2X,.&.l.j.j.j.j.j.j.j.",
"j.j.j.j.j.j.j.j.j.j.j.j.l.' V.2X1X1X2X2X1X8.                C.wXwXwXwXu wXwXwXwXt             T 1X1X1X1X2XA =.k.j.j.j.j.j.j.j.j.",
"j.j.j.j.j.j.j.j.j.j.j.j.j.l.M 6.,X1X1X1X2X2Xx         . 6 & 7XwXwXwXwXwXwXwXwXwXt           = }.2X1X1X<X^ %.j.j.j.j.j.j.j.j.j.j.",
"j.j.j.j.j.j.j.j.j.j.j.j.j.j.z.P c XX1X1X1X1X{.. 6 -.-.:.$XW 8XwXwXwXwXwXwXwXwX&X<           r.1X1X1X5XR %.k.j.j.j.j.j.j.j.j.j.j.",
"j.j.j.j.j.j.j.j.j.j.j.j.j.j.l.g.B @ 2X1X1X1X1X'.;.#X$X$X$XS.0XwXwXwXwXwXwXwXwXZ.M.m.o     K.1X1X1X Xe u.c.j.j.j.j.j.j.j.j.j.j.j.",
"j.j.j.j.j.j.j.j.j.j.j.j.j.j.j.l.j.( D .X1X1X1X2XV.b.$X$X/.B.wXwXwXwXwXwXwXwXwX2.N.$X).. 8.2X1X1XJ.k *.j.l.j.j.j.j.j.j.j.j.j.j.j.",
"j.j.j.j.j.j.j.j.j.j.j.j.j.j.j.j.j.j.s.K L 1X1X1X1XT.Q _.#X~.F S S S S S S F ~.N.$X(.I H.2X1X.Xx  .l.j.j.j.j.j.j.j.j.j.j.j.j.j.j.",
"j.j.j.j.j.j.j.j.j.j.j.j.j.j.j.j.j.j.j.j.> U ,X1X2X1XH., ^._.$X$X$X$X$X$X$X$X$X#X^.= r.2X,XV.3 5.j.z.j.j.j.j.j.j.j.j.j.j.j.j.j.j.",
"j.j.j.j.j.j.j.j.j.j.j.j.j.j.j.j.j.j.j.j.l.%.T 8.1X2X2X:X^ I -.%X$X$X$X$X$X%X1.I ^ }.1X;XT m j.j.j.j.j.j.j.j.j.j.j.j.j.j.j.j.j.j.",
"j.j.j.j.j.j.j.j.j.j.j.j.j.j.j.j.j.j.j.j.c.l.i.P G 1X1X2X1X+XoX% - < 9 < - % {.oX2X3X^ > i.j.j.j.j.j.j.j.j.j.j.j.j.j.j.j.j.j.j.j.",
"j.j.j.j.j.j.j.j.j.j.j.j.j.j.j.j.j.j.j.j.j.j.j.j.) e L.+X1X1X2X1X1X2X2X1X1X1X1X2X!.7. .k.j.j.j.j.j.j.j.j.j.j.j.j.j.j.j.j.j.j.j.j.",
"j.j.j.j.j.j.j.j.j.j.j.j.j.j.j.j.j.j.j.j.j.j.j.j.j.c.{ K L  X3X1X2X2X1X2X1X5XV.D ` &.l.j.j.j.j.j.j.j.j.j.j.j.j.j.j.j.j.j.j.j.j.j.",
"j.j.j.j.j.j.j.j.j.j.j.j.j.j.j.j.j.j.j.j.j.j.j.j.k.j.j.j.u.4 @ = 6.|.Y.e @ @ p j.j.j.j.j.j.j.j.j.j.j.j.j.j.j.j.j.j.j.j.j.j.j.j.j.",
"j.j.j.j.j.j.j.j.j.j.j.j.j.j.j.j.j.j.j.j.j.j.j.j.j.j.j.j.j.j.g.i.) m m ( l.l.j.j.j.j.j.j.j.j.j.j.j.j.j.j.j.j.j.j.j.j.j.j.j.j.j.j.",
"j.j.j.j.j.j.j.j.j.j.j.j.j.j.j.j.j.j.j.j.j.j.j.j.j.j.j.j.j.j.j.j.j.j.j.j.j.j.j.j.j.j.j.j.j.j.j.j.j.j.j.j.j.j.j.j.j.j.j.j.j.j.j.j.",
"j.j.j.j.j.j.j.j.j.j.j.j.j.j.j.j.j.j.j.j.j.j.j.j.j.j.j.j.j.j.j.j.j.j.j.j.j.j.j.j.j.j.j.j.j.j.j.j.j.j.j.j.j.j.j.j.j.j.j.j.j.j.j.j.",
"j.j.j.j.j.j.j.j.j.j.j.j.j.j.j.j.j.j.j.j.j.j.j.j.j.j.j.j.j.j.j.j.j.j.j.j.j.j.j.j.j.j.j.j.j.j.j.j.j.j.j.j.j.j.j.j.j.j.j.j.j.j.j.j.",
"j.j.j.j.j.j.j.j.j.j.j.j.j.j.j.j.j.j.j.j.j.j.j.j.j.j.j.j.j.j.j.j.j.j.j.j.j.j.j.j.j.j.j.j.j.j.j.j.j.j.j.j.j.j.j.j.j.j.j.j.j.j.j.j.",
"j.j.j.j.j.j.j.j.j.j.j.j.j.j.j.j.j.j.j.j.j.j.j.j.j.j.j.j.j.j.j.j.j.j.j.j.j.j.j.j.j.j.j.j.j.j.j.j.j.j.j.j.j.j.j.j.j.j.j.j.j.j.j.j.",
"j.j.j.j.j.j.j.j.j.j.j.j.j.j.j.j.j.j.j.j.j.j.j.j.j.j.j.j.j.j.j.j.j.j.j.j.j.j.j.j.j.j.j.j.j.j.j.j.j.j.j.j.j.j.j.j.j.j.j.j.j.j.j.j."
};
