/* XPM */
static char *_b5d675958714906eab797276bc1c8a4YgJR1rU9sNHwm9D6[] = {
/* columns rows colors chars-per-pixel */
"64 64 216 2 ",
"   c #030202",
".  c #0B0202",
"X  c #030902",
"o  c #0C0A01",
"O  c #02030B",
"+  c #0B030A",
"@  c #070B0C",
"#  c #120201",
"$  c #1E0204",
"%  c #130C00",
"&  c #0A1000",
"*  c #1A1502",
"=  c #030312",
"-  c #020A13",
";  c #080A15",
":  c #000E1B",
">  c #001317",
",  c #1A1816",
"<  c #260306",
"1  c #38080C",
"2  c #251900",
"3  c #310B12",
"4  c #1E201D",
"5  c #272602",
"6  c #292500",
"7  c #322C00",
"8  c #363701",
"9  c #2B2219",
"0  c #001629",
"q  c #012237",
"w  c #292D2A",
"e  c #343635",
"r  c #4E0303",
"t  c #44070E",
"y  c #4D040B",
"u  c #490908",
"i  c #530106",
"p  c #580105",
"a  c #530009",
"s  c #5A000B",
"d  c #470613",
"f  c #570311",
"g  c #453E00",
"h  c #4B3D38",
"j  c #3C4001",
"k  c #564F0D",
"l  c #645D0D",
"z  c #64660C",
"x  c #63601B",
"c  c #726D19",
"v  c #77761A",
"b  c #7A7524",
"n  c #10394D",
"m  c #164958",
"M  c #276076",
"N  c #464747",
"B  c #4F5055",
"V  c #734D4F",
"C  c #67666A",
"Z  c #787678",
"A  c #B73700",
"S  c #B13E1F",
"D  c #B23F2D",
"F  c #C43C01",
"G  c #DB380C",
"H  c #DE3416",
"J  c #DB3917",
"K  c #E5330E",
"L  c #E53715",
"P  c #BC4800",
"I  c #817921",
"U  c #C94801",
"Y  c #D54105",
"T  c #D2500C",
"R  c #CB4824",
"E  c #BF4C43",
"W  c #C97062",
"Q  c #84801E",
"!  c #BDA402",
"~  c #BEA903",
"^  c #8D882B",
"/  c #9B9D3A",
"(  c #ACAA29",
")  c #BCB938",
"_  c #DA8317",
"`  c #E7941C",
"'  c #C0A403",
"]  c #C4AD07",
"[  c #C2A508",
"{  c #C7B709",
"}  c #D1BE14",
"|  c #EE9C3F",
" . c #DFB525",
".. c #F8A936",
"X. c #D5C213",
"o. c #F4FC1F",
"O. c #FCFB1E",
"+. c #DDCF21",
"@. c #E5D722",
"#. c #EDEF24",
"$. c #F3EA2D",
"%. c #FDFA25",
"&. c #F7F628",
"*. c #FCF62C",
"=. c #F6FC2D",
"-. c #FEF92E",
";. c #ECEC39",
":. c #FDE73A",
">. c #F7F231",
",. c #FDF633",
"<. c #F6FC33",
"1. c #FDF932",
"2. c #F5F53A",
"3. c #FDF43B",
"4. c #F7FA3A",
"5. c #FDF93A",
"6. c #979842",
"7. c #959354",
"8. c #A29F46",
"9. c #A2A545",
"0. c #B2B148",
"q. c #B7B859",
"w. c #BBB76B",
"e. c #C0BE57",
"r. c #E6B86A",
"t. c #F1B479",
"y. c #D1D147",
"u. c #C8C958",
"i. c #FFCF47",
"p. c #FFD547",
"a. c #ECC75B",
"s. c #E2DF52",
"d. c #EAE94A",
"f. c #FFED45",
"g. c #FAE849",
"h. c #FEF344",
"j. c #FCFA43",
"k. c #F6F649",
"l. c #FCF44A",
"z. c #EBE95B",
"x. c #FFEB53",
"c. c #EFF258",
"v. c #F7F656",
"b. c #D8D563",
"n. c #DFDF72",
"m. c #FDD768",
"M. c #DFE262",
"N. c #EFEC66",
"B. c #FDE863",
"V. c #F6F266",
"C. c #FFE270",
"Z. c #F6F576",
"A. c #267183",
"S. c #477D97",
"D. c #B57D87",
"F. c #488BA5",
"G. c #4694AB",
"H. c #5299B2",
"J. c #57A7BF",
"K. c #5AA9C6",
"L. c #6BB4C9",
"P. c #63BBDA",
"I. c #3ACCF2",
"U. c #3FCCF8",
"Y. c #66C0DE",
"T. c #47C4ED",
"R. c #55CAEB",
"E. c #4AC5F3",
"W. c #45CBF3",
"Q. c #4CCAF4",
"!. c #49C5FA",
"~. c #44CCFA",
"^. c #4ACAFA",
"/. c #56C7F5",
"(. c #44D0FA",
"). c #62C6E6",
"_. c #74CCE9",
"`. c #878689",
"'. c #8F8F92",
"]. c #A1A59E",
"[. c #A6ADAE",
"{. c #B7BABA",
"}. c #CC979A",
"|. c #EBA986",
" X c #F7A786",
".X c #EEAA96",
"XX c #F4A799",
"oX c #F59DA7",
"OX c #FB9DA6",
"+X c #FB9EA9",
"@X c #F99FB0",
"#X c #E8A4A9",
"$X c #F5A1A6",
"%X c #FAA1A5",
"&X c #F5A2AB",
"*X c #FAA2AC",
"=X c #EDA7B2",
"-X c #F7A4B3",
";X c #F4F884",
":X c #C7C8C8",
">X c #CED1D1",
",X c #D6D6DA",
"<X c #E1DCD5",
"1X c #DFE4DE",
"2X c #E9EEDA",
"3X c #E4E6E5",
"4X c #E8E9E7",
"5X c #F7EDE8",
"6X c #F6F7EB",
"7X c #F5F3F3",
"8X c #F8FAF7",
"9X c #FCFBF6",
"0X c #F7F7FA",
"qX c #FFFEFA",
"wX c #FEFEFE",
"eX c #FEFFFE",
/* pixels */
"-.-.-.-.-.-.-.-.-.-.-.-.-.-.-.-.-.-.-.-.-.-.-.-.-.-.-.-.-.-.-.-.-.-.-.-.-.-.-.-.-.-.-.-.-.-.-.-.-.-.-.-.-.-.-.-.-.-.-.-.-.-.-.-.",
"-.-.-.-.-.-.-.-.-.-.-.-.-.-.-.-.-.-.-.-.-.-.-.-.-.-.-.-.-.-.-.-.-.-.-.-.-.-.-.-.-.-.-.-.-.-.-.-.-.-.-.-.-.-.-.-.-.-.-.-.-.-.-.-.",
"-.-.-.-.-.-.-.-.-.-.-.-.-.-.-.-.-.-.-.-.-.-.-.-.-.-.-.-.-.-.-.-.-.-.-.-.-.-.-.-.-.-.,.1.-.,.-.-.-.-.-.-.-.-.-.-.-.-.-.-.-.-.-.-.",
"-.-.-.-.-.-.-.-.-.-.-.-.-.-.-.-.-.-.-.-.-.-.-.-.-.-.-.-.-.-.-.-.-.-.-.-.-.-.-.-.-.-.,.,.5.%.1.-.-.-.-.-.-.-.-.-.-.-.-.-.-.-.-.-.",
"-.-.-.-.-.-.-.-.-.-.-.-.-.-.-.-.-.-.2.=.1.-.-.-.-.-.1.1.-.-.-.-.-.-.-.-.%.-.-.1.-.-.=.c   1.-.-.-.-.5.-.1.-.-.1.-.-.-.-.-.-.-.-.",
"-.-.-.-.-.-.-.-.-.-.-.-.1.-.-.-.-.-.  o -.-.-.-.-.3.%.-.-.-.-.-.-.-.-.-.1.l 1.1.-.-.1.7.  =.1.-.-.-.-.-.*.-.-.-.-.-.-.-.-.-.-.-.",
"-.-.-.-.-.-.-.-.-.-.-.3.5.-.-.-.-.-.O   -.-.-.-.-.<.. v.,.1.-.-.-.-.-.-.x O -.-.-.-.,.w.  =.1.-.-.-.N.  %.1.1.-.-.-.-.-.-.-.-.-.",
"-.-.-.-.-.-.-.-.-.*.j.= k *.-.-.-.-.+ . -.-.-.-.-.v   ;.1.-.-.-.-.-.-.-.j.  s.5.,.-.-.b.  1.1.-.-.5.. . 5.-.-.1.-.-.-.-.-.-.-.-.",
"-.-.-.-.-.-.-.-.-.-.*..   -.-.-.1.1.    ,.1.-.-.=.  7 *.-.1.-.-.-.-.-.-.-.. . *.-.1.3.n.  2.5.-.-.v.  y.5.-.-.-.-.-.-.-.-.-.-.-.",
"-.-.-.-.-.-.-.-.-.-.-.z.  k.*.e.% O         o b.u.  -.-.-.-.-.-.-.-.-.-.*.Z.O Z.% O           o M..   -.1.-.-.-.-.-.-.-.-.-.-.-.",
"-.-.-.-.-.-.-.-.-.-.-.-..   o 0XqXeXeXeXqXqX9X2XX h #.-.-.-.-.-.-.-.-.-.&.Z.  w eXqXeXeXeXeXeX8XZ   7.5.-.-.-.-.-.-.-.-.-.-.-.-.",
"-.-.-.-.-.-.-.-.-.-.#.d.  8XeXeXeXeXeXeXeXeXeXeXeX9X. 2.-.-.-.-.-.-.-.&.* @ 8XeXeXeXeXeXeXeXeXeXeXeXN . 5.-.1.-.-.-.-.-.-.-.-.-.",
"-.-.-.-.-.-.-.-.-.-.d.  eXeXeXeXeXeXeXeXeXeXeXeXeXqX9Xo k.-.-.-.-.-.*.o ,XqXeXeXeXeXeXeXeXeXeXeXeXeXeX0X+ 5.,.1.-.-.-.-.-.-.-.-.",
"-.-.-.-.-.-.-.1.O.2.  eXeXeXeXeXeXeXeXeXeXeXeXeXeXeXeXeX. 3.&.,.1.5.* ,XeXeXeXeXeXeXeXeXeXeXeXeXeXeXeXeXeX  &.-.-.-.-.-.-.-.-.-.",
"-.-.-.-.-.-.-.3.1.. eXeXeXeXeXeXeXeXeXeXeXeXeXeXeXeXeXeX8Xo ,.*.5.u.B qXeXeXeXeXeXeXeXeXeXeXeXeXeXeXeXeXeX>X7 -.-.-.-.-.-.-.-.-.",
"-.-.-.-.-.-.-.-./ ,XqXeXeXeXeXeXeXeXeXeXeXeXeXeXeXeXeXeXeX{.u.-.o.  9XeXeXeXeXeXeXeXeXeXeXeXeXeXeXeXeXeXeXeX  2.-.-.-.-.-.-.-.-.",
"-.-.-.-.-.-.-.=.. eXeXeXeXeXeXeXeXeXeXeX5X= - - + :XeXeXeXeXO >./ 3XeXeXeXw O A.K.0   0XqXeXeXeXeXeXeXeXeXeXeX% %.1.-.-.-.-.-.-.",
"-.-.-.-.-.-.-.V.'.eXeXeXeXeXeXeXeXeXeX4 S.I.W.~.W._.+ 8XeXeXC v.. qXeXeX+ _.U.^.Q.~.T.: 4XeXeXeXeXeXeXeXeXeXeX  5.-.-.-.-.-.-.-.",
"-.-.-.-.-.-.-.g eXeXeXeXeXeXeXeXeXeX{.J.^.U.R.R.^.W.R., 9XeX8Xj   eXeX'.L.E.W.m : H.^.~.  eXeXeXeXeXeXeXeXeXeXN v.-.-.-.-.-.-.-.",
"-.-.-.-.-.-.-.. eXeXeXeXeXeXeXeXeXeXO ~.E.-     O /.W.q eXeXeX  `.eXeXO ^.Q.+       0 ^.P.[.eXeXeXeXeXeXeXeXeX7X^ %.-.-.-.-.-.-.",
"-.-.-.-.-.-.-.. qXeXeXeXeXeXeXeXeXeXM ^.G.        O E.R.9XeXeX  eXeXqX@ ^.P.          ^.Q.. eXeXeXeXeXeXeXeXeXeX6 *.-.-.-.-.-.-.",
"-.-.-.-.-.-.-.  9XeXeXeXeXeXeXeXeXeXG.^.>         . Q.T.3XeXeX  eXeXqX- ^.G.          E.W.  eXeXeXeXeXeXeXeXeXeX* *.-.-.-.-.-.-.",
"-.-.-.-.-.-.-.  eXeXeXeXeXeXeXeXeXeXn Q.F.        ; !.P.qXeXeX  eXeXeX  ~./.      + X W.P.'.eXeXeXeXeXeXeXeXeX8X8 5.-.-.-.-.-.-.",
",.-.-.-.-.-.-.. qXeXeXeXeXeXeXeXeXeX+ Q.~.>     O R.~.= eXeXeX  e eXeXB Y.(.).O   : Q.W.O 8XeXeXeXeXeXeXeXeXeX,X0.%.-.1.-.-.-.-.",
",.1.-.-.-.-.-.8.8XeXeXeXeXeXeXeXeXeX0X0 W.!.R./.Q.~.F.8X9X6X        `.9X+ ).(.U.W.~.!.n ].eXeXeXeXeXeXeXeXeXqX@ h.,.-.-.-.-.-.-.",
",.-.-.-.-.-.-.4.4 eXeXeXeXeXeXeXeXeXeX9X; R.!.^./.0 5X9X{.. O.,.-.-.6.= 0X. q ).R.H.@ <XeXeXeXeXeXeXeXeXeX0XqX  *.,.-.-.-.-.-.-.",
"-.-.-.-.-.-.-.1.. 9X9X9XeXeXeXeXeXeXeXeX9X7X9 O 3X9X0XqX  <.=.-.-.1.*.8 5XeX0X7X>X0X0XqXeXeXeXeXeXeXeX9XE H L L A h.-.-.-.-.-.-.",
"-.-.-.-.1.%.f.L H L G H L 6XeXeXeXeXeXeXeXeXeXeXeXeXeX9X. -.1.-.-.-.-.k.  eXeXeXeXeXeXeXeXeXeXeXeXeX5XL ..1.1.<.3.T A 5.-.-.-.-.",
"-.-.-.-.-.i.G g.%.` f.*.3.K 9XqXeXeXeXeXeXeXeXeXeXeXeXqX5 1.-.-.-.-.1.k.  eXeXeXeXeXeXeXeXeXeXeXeXqXG ,.4.1.Y  .%.*.3.U 1.-.-.-.",
"-.-.-.=.f.G ,.%.=.3.*.,.-.f.D 0XeXeXeXeXeXeXeXeXeXeXeXqX. ,.-.-.-.-.*.) Z eXeXeXeXeXeXeXeXeXeXeXeXW ..=.-.-.<.*.=.-.h.i.i.1.1.-.",
"-.-.-.-.F l.F p.=.=.*.-.-.=.K eXeXeXeXeXeXeXeXeXeXeX8X% . *.5.-.-.-.,.+ @ 9XeXeXeXeXeXeXeXeXeXeXeXJ 1.*.-.,.5.U P h.P -.G ,.-.-.",
"-.-.1.-.G *.-.1.h.T 1.-.-.-.Y eXeXeXeXeXeXeXeXeXeX@ / -.5.0.,.,.1.1.v.. N.O eX9XeXeXeXeXeXeXeXeXqXS h.&.) ;X<.1.-.1.-.*.J *.1.-.",
"-.-.-.5.F -.-.*.=.<.1.$.-.%.R O 4XeXeXeXqXeX1X= 5 *.1.,.3.2.h.-.1.1.. 5.-.3.8   {.7XeXeXeXeX8X3X  2 ` =.3.;.O c 1.-.-.1.Y 1.-.-.",
"-.-.-.=.G *.<.5.-.*.o k.,.-.,.1.v.c 2 % * v l.1.-.-.-.-.-.-.-.,.,.q.2.,.1.-.-.1.c.6         * s.5.-.-.,.2.+   3.u.O.1.:.i.-.-.-.",
"-.-.=.-.p.:.%.-.1.% 8 -.%.-.-.-.,.,.*.-.*.-.-.-.-.-.-.-.-.-.-.1.5.2.,.5.-.1.-.-.%.-.*.5.1.*.,.-.-.1.1.j $ a 2 ,.*.=.3.F *.=.-.-.",
"-.-.-.-.-.| 3.3.v.#.O   I 1.-.-.-.,.-.-.-.,.-.1.-.-.-.-.-.-.-.-.-.-.1.-.-.-.-.-.*.-.3.-.-.-.%.1.1.Q   d i 1 V.,.%.>._ 3.*.1.-.-.",
"-.-.-.-.-.*.*.1.1.&.  t .   6.5.-.-.-.-.-.-.-.-.-.-.-.-.-.-.-.-.-.-.-.-.-.-.-.-.-.-.1.1.-.3.-.b + t p a a . 1.=.-.*.1.1.-.-.-.-.",
"-.-.-.-.-.-.-.-.1.&.z 1 s d #   5 k.-.-.-.-.-.-.-.-.-.-.-.-.-.-.-.-.-.-.-.-.-.-.-.-.-.1.5.z . 1 p a p p i . -.%.1.-.1.1.-.-.-.-.",
"-.-.-.-.-.-.-.-.-.1.l.# p y p y <   X q.&.,.%.-.-.3.=.-.-.-.-.-.-.-.-.-.-.-.-.5.,.,.h.& # d s a a a a p t Z.,.1.-.-.-.-.-.-.-.-.",
"-.-.-.-.-.-.-.-.-.=.*.  p s a y p i u < . + g N.1.1.5.1.-.-.-.-.-.-.-.-.-.5.1.c.7 + < f r a p a a a a a   1.-.-.-.-.-.-.-.-.-.-.",
"-.-.-.-.-.-.-.-.-.-.*.8.t p p a a a a a a y 1       o * x ( s.d.d.) b 9 .     :X. r a a a a a a a a y a . >.-.-.-.-.-.-.-.-.-.-.",
"-.-.-.-.-.-.-.-.-.-.1.5.. a a p a a a a a a a . eXeX0X1X'.,   . .   `.0XqXqXeXeX  a a a a a a a a a s < N.-.-.-.-.-.-.-.-.-.1.-.",
"-.-.-.-.-.-.-.-.-.-.-.-.& a a p a a a a a a p   eXeXeXeXeXeXO a a   eXeXeXeXeXeX  p p p a a a a a i a + 1.-.-.-.-.-.-.-.-.-.1.-.",
"-.-.-.-.-.-.-.-.-.-.-.-.l.. s a a a a a a a a @ eXeXeXeXeXeXO a a   eXeXeXeXeXeX  a a a a a a a a p < 9.-.1.-.-.-.-.-.-.-.-.1.-.",
"-.-.-.-.-.-.-.-.-.-.-.%.1.. y a a p a a a a y w eXeXeXeXeX0X  p a   qXeXeXeXeXeX  a a a a a a p a r   *.-.-.-.-.-.-.-.-.-.-.-.5.",
"-.-.-.-.-.-.-.-.-.-.-.5.=.1.  s p a a a a a y N eXeXeXeXeXeX  p p . 8XeXeXeXeXeXw y a a a a a a s $ y.-.-.-.-.-.-.-.-.-.-.-.-.5.",
"-.-.-.-.-.-.-.-.-.-.-.-.%.-.k 1 a a a a a a s < .       @ h . s p . N ,         . p a a a a a a y o %.-.-.-.-.-.-.-.-.-.-.-.1.3.",
"-.-.-.-.-.-.-.-.-.-.-.-.-.1.5.. u p a a a a p a a i a i a y y a p y t y y y a a a p a a a a a i   ,.-.-.-.-.-.-.-.-.-.-.-.-.-.5.",
"-.-.-.-.-.-.-.-.-.-.-.-.-.-.=.2.  r a a a a a p a y a p s a a a a p a y y a a i a a a a a p y # v.-.=.1.-.-.-.-.-.-.-.-.-.-.,.-.",
"-.-.1.$.! ~ X.,.-.-.-.-.-.-.-.-.V.# a s a a p t #   .   . 1 a a a <   . # # . $ s y p a a i # Z.,.1.-.-.-.-.-.-.-.-.-.-.-.-.1.*.",
"-.-.! [ ' ' ' ! -.-.-.-.-.-.-.1.-.M.+ y i y . # =X$XOXOX&X=X. 3 % =X*X&X%X$X+XD.X f r p y + z.,.h.-.-.-.-.-.-.-.-.-.-.-.-.-.1.1.",
"<.] ' ! ' ' ' ' +.-.-.-.-.-.-.-.-.-.c.  3 # oX+X+X+X+X+X+X+X+X*X+X+X+X+X+X+X+X+X=X  u <   v.1.-.-.-.-.-.-.-.-.-.-.-.-.-.-.-.-.-.",
"5.' ! ' ' ' ' ' ~ -.-.-.-.-.-.-.-.-.-.1.. # &XOXOX+X+X+X+X+X+X+X+X+X+X+X+X+X*XOX#X<   6 *.%.-.-.-.-.-.-.-.-.-.-.-.-.-.-.-.-.-.-.",
">.' ! ' ' ' ' ' ! ,.-.-.-.-.-.-.-.-.1.-.1.k.o . #X@X+X+X%XOXOX+XOX+X*X-XOX$X#X+   o >.-.-.-.-.-.-.-.-.-.-.,.-.1.5.3.1.*.1.-.-.-.",
"{ ' ' ' ' ' ' ! ! -.-.-.-.-.-.-.-.-.1.1.-.-.,.2.j X . V }.#X#X=X#X}.h #   X . u.-.1.*.-.,.-.-.-.-.-.-.-.-.-.,.~ ! [ ~ <.-.-.-.-.",
"@.' ' ' ' ' ' ! X.*.-.-.-.-.-.-.-.-.1.1.r.%.,.1.%.4.5.1.j.d.( ^ b ^ y.l.=.*.5.-.%.x.a.5.-.-.-.-.-.-.-.-.-.1.! ' ' ' ! 3.=.-.-.-.",
",.' ' ' ' ' ' ! 1.-.1.-.-.-.-.-.-.-.-.-.5. XB.=.,.-.,.-.-.*.-.1.,.-.1.1.1.=.-.m.&Xm.-.1.-.-.-.-.-.-.-.-.-.! ' ' ' ' ' @.-.-.-.-.",
"-.! ' ' ! ' ' 3.-.-.-.-.-.-.-.-.-.-.-.-.1.o.t.oXx.-.,.-.,.g.oX%X|.l.1.-.=.C.XX|.-.,.%.1.1.-.-.-.-.-.-.-.<.! ' ' ' ' ' 3.-.-.-.-.",
"-.1.} ' ! ! >.-.-.-.-.-.-.-.-.-.-.-.-.-.-.-.1.f..X&X X|..Xa.t.$X%X+X%XXX*Xr.3.%.-.-.-.-.-.-.-.-.-.-.-.-.-.! ' ' ' ' ! -.-.-.-.-.",
"-.-.-.-.,.-.-.-.-.-.-.-.-.-.-.-.-.-.-.-.-.-.-.-.-.,.x.3.4.1.-.-.3.h.B.h.1.,.%.-.-.-.-.-.-.-.-.-.-.-.-.-.-.] ' ! ' ' 3.=.1.-.-.-.",
"-.-.-.-.-.-.-.-.-.-.-.-.-.-.-.-.-.-.-.-.-.-.-.-.-.-.-.-.-.-.-.-.-.-.-.-.-.-.-.-.-.-.-.-.-.-.-.-.-.-.-.-.1.5.[ ! ! 3.-.-.-.-.-.-.",
"-.-.-.-.-.-.-.-.-.-.-.-.-.-.-.-.-.-.-.-.-.-.-.-.-.-.-.-.-.-.-.-.-.-.-.-.-.-.-.-.-.-.-.-.-.-.-.-.-.-.-.-.1.-.-.,.-.-.-.-.-.-.-.-.",
"-.-.-.-.-.-.-.-.-.-.-.-.-.-.-.-.-.-.-.-.-.-.-.-.-.-.-.-.-.-.-.-.-.-.-.-.-.-.-.-.-.-.-.-.-.-.-.-.-.-.-.-.-.-.-.-.-.-.-.-.-.-.-.-.",
"-.-.-.-.-.-.-.-.-.-.-.-.-.-.-.-.-.-.-.-.-.-.-.-.-.-.-.-.-.-.-.-.-.-.-.-.-.-.-.-.-.-.-.-.-.-.-.-.-.-.-.-.-.-.-.-.-.-.-.-.-.-.-.-."
};
