/* XPM */
static char *_5d0b31378114e1e8d7d39c9b34adb36jPkr0zZe38ZflldA[] = {
/* columns rows colors chars-per-pixel */
"64 64 103 2 ",
"   c #040606",
".  c #090606",
"X  c #040807",
"o  c #0B0C07",
"O  c #050709",
"+  c #090609",
"@  c #050909",
"#  c #090A0C",
"$  c #1F0E0E",
"%  c #0B110D",
"&  c #060612",
"*  c #090F11",
"=  c #0D1411",
"-  c #101314",
";  c #121A17",
":  c #131C1A",
">  c #191C1C",
",  c #1C211F",
"<  c #27271F",
"1  c #1D2925",
"2  c #202C27",
"3  c #31302D",
"4  c #2F3633",
"5  c #2E3C36",
"6  c #323A36",
"7  c #333F3B",
"8  c #4D282B",
"9  c #403F33",
"0  c #6F3033",
"q  c #663838",
"w  c #743135",
"e  c #723A32",
"r  c #76323A",
"t  c #37413D",
"y  c #4D4D3D",
"u  c #3C4743",
"i  c #444D4B",
"p  c #47514D",
"a  c #4B5754",
"s  c #475A53",
"d  c #4E5B57",
"f  c #505D58",
"g  c #53625D",
"h  c #5E6B66",
"j  c #656E6D",
"k  c #65756F",
"l  c #6C7776",
"z  c #737977",
"x  c #737E7A",
"c  c #71817B",
"v  c #7D8B86",
"b  c #7F948C",
"n  c #82918C",
"m  c #889794",
"M  c #899A95",
"N  c #909D9B",
"B  c #8FA49D",
"V  c #92A39D",
"C  c #AEAE96",
"Z  c #96ACA4",
"A  c #99ACA5",
"S  c #9CB3AB",
"D  c #B5B5A2",
"F  c #A6B5B0",
"G  c #A9BEB6",
"H  c #AEBDB9",
"J  c #B5BDBD",
"K  c #C6B19B",
"L  c #ACC4BC",
"P  c #B1C6BF",
"I  c #DBC6B0",
"U  c #D7D8B5",
"Y  c #B5CAC3",
"T  c #B9CBC5",
"R  c #BCCFCA",
"E  c #B7D1C8",
"W  c #BBD3CC",
"Q  c #BFDED4",
"!  c #BFE1D6",
"~  c #C3DED5",
"^  c #C8DED6",
"/  c #C4DED8",
"(  c #CADFD8",
")  c #ECDDC0",
"_  c #C3E0D6",
"`  c #C6E1D8",
"'  c #C5E3D8",
"]  c #C8E0D8",
"[  c #CEE2DC",
"{  c #CAE5DD",
"}  c #ECECCA",
"|  c #F9F7CE",
" . c #FBF9CA",
".. c #FCFCCA",
"X. c #FAFBCF",
"o. c #FCFACC",
"O. c #FEF9CF",
"+. c #FDFCCC",
"@. c #F8F7D6",
"#. c #FCFAD0",
"$. c #FCFAD1",
"%. c #F8F8D8",
"&. c #D0E8E0",
/* pixels */
"_ _ _ _ _ _ _ _ _ _ _ _ _ _ _ _ _ _ _ _ _ _ _ _ _ _ _ _ _ _ _ _ _ _ _ _ _ _ _ _ _ _ _ _ _ _ _ _ _ _ _ _ _ _ _ _ _ _ _ _ _ _ _ _ ",
"_ _ _ _ _ _ _ _ _ _ _ _ _ _ _ _ _ _ _ _ _ _ _ _ _ _ _ _ _ _ _ _ _ _ _ _ _ _ _ _ _ _ _ _ _ _ _ _ _ _ _ _ _ _ _ _ _ _ _ _ _ _ _ _ ",
"_ _ _ _ _ _ _ _ _ _ _ _ _ _ _ _ _ _ _ _ _ _ _ _ _ _ _ _ _ _ _ _ _ _ _ _ _ _ _ _ _ _ _ _ _ _ _ _ _ _ _ _ _ _ _ _ _ _ _ _ _ _ _ _ ",
"_ _ _ _ _ _ _ _ _ _ _ _ _ _ _ _ _ _ _ _ _ _ _ _ _ _ _ _ _ _ _ _ _ _ _ _ _ _ _ ^ . # O O A _ _ _ _ _ _ _ _ _ _ _ _ _ _ _ _ _ _ _ ",
"_ _ _ _ _ _ _ _ _ _ _ _ _ _ _ _ _ _ _ _ _ _ _ _ _ _ _ _ _ _ _ _ _ _ _ _ _ _ W ~ ~ _ ~ _ ' + ~ _ _ _ _ _ _ _ _ _ _ _ _ _ _ _ _ _ ",
"_ _ _ _ _ _ _ _ _ _ _ _ _ _ _ _ _ _ _ _ _ _ _ _ _ _ _ _ _ _ _ _ _ _ _ _ _ _ _ _ _ _ _ _ _ ~ , _ _ _ _ _ _ _ _ _ _ _ _ _ _ _ _ _ ",
"_ _ _ _ _ _ _ _ _ _ _ _ _ _ _ _ _ _ _ _ _ _ _ _ _ _ _ _ _ _ _ _ _ _ _ _ _ _ ^ @ @ @ g _ _ _ _ _ _ _ _ _ _ _ _ _ _ _ _ _ _ _ _ _ ",
"_ _ _ _ _ _ _ _ _ _ _ _ _ _ _ _ _ _ _ _ _ _ _ _ _ _ _ _ _ _ _ _ _ _ _ _ g X ( ' ~ / N O V _ _ _ _ _ _ _ _ _ _ _ _ _ _ _ _ _ _ _ ",
"_ _ _ _ _ _ _ _ _ _ _ _ _ _ _ _ _ _ _ _ _ _ _ _ _ _ _ _ _ _ _ _ _ _ _ # _ _ _ _ _ _ _ _ @ G _ _ _ _ _ _ _ _ _ _ _ _ _ _ _ _ _ _ ",
"_ _ _ _ _ _ _ _ _ _ _ _ _ _ _ _ _ _ _ _ _ _ _ _ _ _ _ _ _ _ _ _ _ _ Z ~ _ _ _ _ _ _ _ _ _ O _ _ _ _ _ _ _ _ _ _ _ _ _ _ _ _ _ _ ",
"_ _ _ _ _ _ _ _ _ _ _ _ _ _ _ _ _ _ _ _ _ _ _ _ _ _ _ _ _ _ _ _ _ _ _ _ _ _ _ _ _ _ _ _ _ ~ Y _ _ _ _ _ _ _ _ _ _ _ _ _ _ _ _ _ ",
"_ _ _ _ _ _ _ _ _ _ _ _ _ _ _ _ _ _ _ _ _ _ _ _ _ _ _ _ _ _ _ _ _ _ _ _ _ _ _ _ _ _ _ _ _ _ X _ _ _ _ _ _ _ _ _ _ _ _ _ _ _ _ _ ",
"_ _ _ _ _ _ _ _ _ _ _ _ _ _ _ _ _ _ _ _ _ _ _ _ _ _ _ _ _ _ _ _ _ _ _ _ _ _ _ _ _ _ _ _ _ _ _ _ _ _ _ _ _ _ _ _ _ _ _ _ _ _ _ _ ",
"_ _ _ _ _ _ _ _ _ _ _ _ _ _ _ _ ~ _ _ _ _ _ _ _ _ _ _ _ _ _ _ _ _ _ _ _ _ _ _ _ ~ _ _ _ _ _ _ _ _ _ _ _ _ _ _ _ _ _ _ _ _ _ _ _ ",
"_ _ _ _ _ _ _ _ _ _ _ _ _ _ ' @ O O O O O X t M Y ^ ' _ _ _ ' ' _ _ _ _ ( O O O O O T _ _ _ _ _ _ _ _ _ _ _ _ _ _ _ _ _ _ _ _ _ ",
"_ _ _ _ _ _ _ _ _ _ _ _ _ _ _ _ _ ~ z O #   O O O O O O @ p ~ ~ _ _ _ @ # _ _ _ _ _ X O _ _ _ _ _ _ _ _ _ _ _ _ _ _ _ _ _ _ _ _ ",
"_ _ _ _ _ _ _ _ _ _ _ _ _ _ _ _ _ ~ O _ _ _ _ _ _ _ _ !   _ _ _ _ _ X F _ _ _ _ _ _ _ s O _ _ _ _ _ _ _ _ _ _ _ _ _ _ _ _ _ _ _ ",
"_ _ _ _ _ _ _ _ _ _ _ _ _ _ _ _ _ X _ _ _ _ _ _ _ _ _ ' m O _ _ _ d f _ _ _ _ _ _ _ _ _ 1 X _ _ _ _ _ _ _ _ _ _ _ _ _ _ _ _ _ _ ",
"_ _ _ _ _ _ _ _ _ _ _ _ _ _ _ _ 5 Y _ _ _ _ _ _ _ _ _ _ _   _ _ _ O _ _ _ _ _ _ _ _ _ _ _ O ' _ _ _ _ _ _ _ _ _ _ _ _ _ _ _ _ _ ",
"_ _ _ _ _ _ _ _ _ _ _ _ _ _ _ _ X ' _ _ _ _ _ _ _ _ _ _ _ ~ O _ = ' _ _ _ _ _ _ _ _ _ _ _ ~ @ _ _ _ _ _ _ _ _ _ _ _ _ _ _ _ _ _ ",
"_ _ _ _ _ _ _ _ _ _ _ _ _ _ _ ~ O _ _ _ _ _ _ _ _ _ _ _ _ _ O Q O _ ' _ _ _ _ _ _ _ _ _ _ _ O ~ _ _ _ _ _ _ _ _ _ _ _ _ _ _ _ _ ",
"_ _ _ _ _ _ _ _ _ _ _ _ _ _ _ @ / _ _ _ _ _ _ _ _ _ _ _ _ _ X %   _ _ _ _ _ _ _ _ _ _ _ _ _ - = _ _ _ _ _ _ _ _ _ _ _ _ _ _ _ _ ",
"_ _ _ _ _ _ _ _ _ _ _ _ _ _ _ O _ _ _ _ _ _ _ _ _ _ _ _ _ _ L O T _ _ _ _ _ _ _ _ _ _ _ _ _ Q . _ _ _ _ _ _ _ _ _ _ _ _ _ _ _ _ ",
"_ _ _ _ _ _ _ _ _ _ _ _ _ _ ' @ , ~ _ ~ ~ W c 6 , 6 b &._ _ _ O ' _ _ _ _ _ _ _ _ _ _ _ _ _ _ O _ _ _ _ _ _ _ _ _ _ _ _ _ _ _ _ ",
"_ _ _ _ _ _ _ _ _ _ _ _ _ _ O ' _ _ ~ _ ~ ~ ~ _ _ ~ _ _ _ ! . ~ _ _ _ _ _ 1 X + + @ O X Q _ X O O x _ _ _ _ _ _ _ _ _ _ _ _ _ _ ",
"_ _ _ _ _ _ _ _ _ _ _ _ _ _ @ O k v S P ~ ~ ~ ~ ~ _ _ ~ _ R = _ _ _ _ _ _ _ _ _ _ _ _ _ _ ' _ _ @ O _ _ _ _ _ _ _ _ _ _ _ _ _ _ ",
"_ _ _ _ _ _ _ _ _ _ _ _ _ _ _ @ O O @ X O O O   O @ @ O O O O O   O O O O   @ , l W { ' ~ ' ' [ O % _ _ _ _ _ _ _ _ _ _ _ _ _ _ ",
"_ _ _ _ _ _ _ _ _ _ _ _ _ _ _   } O.O.#.O. .O.I r w O.O.O.O.& O o #.#...#.q 8 $ O O O O O O O O ' ' _ _ _ _ _ _ _ _ _ _ _ _ _ _ ",
"_ _ _ _ _ _ _ _ _ _ _ _ _ _ _ j 9 #.O.O.O.O.X.) w w #.O.O.O.X O O O.X.O.X.0 w w O.O.O.O.O.O.  u ' _ _ _ _ _ _ _ _ _ _ _ _ _ _ _ ",
"_ _ _ _ _ _ _ _ _ _ _ _ _ _ _ ' O #.O.O.O.O.X.#.w w O.O.O.O.O J @ O.O.X.X.0 w w X.O.O.O.O.O.# ~ ' _ _ _ _ _ _ _ _ _ _ _ _ _ _ _ ",
"_ _ _ _ _ _ _ _ _ _ _ _ _ _ _ _ O +.O.O.O.O.O.O.O.O.#.O.O.#.O _ O @.O.O.O.K r e O.O.O.O.O.O.O ~ _ _ _ _ _ _ _ _ _ _ _ _ _ _ _ _ ",
"_ _ _ _ _ _ _ _ _ _ _ _ _ _ _ _ @ D O.O.O.O.O.O.O.O.O.O.#.O ; @ @ + #.O.O.O.X.O.O.O.O.O.O.y > _ _ _ _ _ _ _ _ _ _ _ _ _ _ _ _ _ ",
"_ _ _ _ _ _ _ _ _ _ _ _ _ _ _ _ ~ O O.O.O.O.X.O.O.O.O.| O _ ~ _ _ O #.O.O.O.O.X.X.X.O.O.O.O ~ _ _ _ _ _ _ _ _ _ _ _ _ _ _ _ _ _ ",
"_ _ _ _ _ _ _ _ _ _ _ _ _ _ _ _ _   . O.O.O.O.O.O.O.O.O _ _ _ _ _ _ O X.O.O.X.X.X.X.O.O.o u _ _ _ _ _ _ _ _ _ _ _ _ _ _ _ _ _ _ ",
"_ _ _ _ _ _ _ _ _ _ _ _ _ _ _ _ _ ' O % O.X.X.O.O.X.U * _ _ _ _ _ _ ~   O.O.O.O.O.O.O.C X _ _ _ _ _ _ _ _ _ _ _ _ _ _ _ _ _ _ _ ",
"_ _ _ _ _ _ _ _ _ _ _ _ _ _ _ _ _ _ _ O O %.X.X.X.O.O _ _ _ _ _ _ _ _ O X.O.O.O.O.X.3 O _ _ _ _ _ _ _ _ _ _ _ _ _ _ _ _ _ _ _ _ ",
"_ _ _ _ _ _ _ _ _ _ _ _ _ _ _ _ _ _ _ _ v O O O @ O   _ _ _ _ _ _ _ _ _ O O   < O O X _ _ _ _ _ _ _ _ _ _ _ _ _ _ _ _ _ _ _ _ _ ",
"_ _ _ _ _ _ _ _ _ _ _ _ _ _ _ _ _ _ _ _ _ _ _ ~ _ O / _ _ _ _ _ _ _ _ _ : ] Y b ^ _ _ _ _ _ _ _ _ _ _ _ _ _ _ _ _ _ _ _ _ _ _ _ ",
"_ _ _ _ _ _ _ _ _ _ _ _ _ _ _ _ _ _ _ _ _ _ _ ' ~ O _ _ _ _ _ _ _ _ _ _ _ O _ _ _ _ _ _ _ _ _ _ _ _ _ _ _ _ _ _ _ _ _ _ _ _ _ _ ",
"_ _ _ _ _ _ _ _ _ _ _ _ _ _ _ _ _ _ _ _ _ _ _ _   : _ _ _ _ _ _ _ _ _ _ _ # _ _ _ _ _ _ _ _ _ _ _ _ _ _ _ _ _ _ _ _ _ _ _ _ _ _ ",
"_ _ _ _ _ _ _ _ _ _ _ _ _ _ _ _ _ _ _ _ _ _ _ _ O _ _ _ _ _ _ _ _ _ _ _ _ ~ X _ _ _ _ _ _ _ _ _ _ _ _ _ _ _ _ _ _ _ _ _ _ _ _ _ ",
"_ _ _ _ _ _ _ _ _ _ _ _ _ _ _ _ _ _ _ _ _ _ _ A O _ _ _ _ _ _ _ _ _ _ _ _ _ @ ~ _ _ _ _ _ _ _ _ _ _ _ _ _ _ _ _ _ _ _ _ _ _ _ _ ",
"_ _ _ _ _ _ _ _ _ _ _ _ _ _ _ _ _ _ _ _ _ _ _ O # _ _ _ _ _ _ _ _ _ _ _ _ _ H 7 _ _ _ _ _ _ _ _ _ _ _ _ _ _ _ _ _ _ _ _ _ _ _ _ ",
"_ _ _ _ _ _ _ _ _ _ _ _ _ _ _ _ _ _ _ _ _ _ _ O ~ _ _ _ _ _ _ _ _ _ _ _ _ _ _ O _ _ _ _ _ _ _ _ _ _ _ _ _ _ _ _ _ _ _ _ _ _ _ _ ",
"_ _ _ _ _ _ _ _ _ _ _ _ _ _ _ _ _ _ _ _ _ _ Y O _ _ _ _ _ _ _ _ _ _ _ _ _ _ _ @ ' _ _ _ _ _ _ _ _ _ _ _ _ _ _ _ _ _ _ _ _ _ _ _ ",
"_ _ _ _ _ _ _ _ _ _ _ _ _ _ _ _ _ _ _ _ _ _ O @ _ _ _ _ _ _ _ _ _ _ _ _ _ _ _ O 5 _ _ _ _ _ _ _ _ _ _ _ _ _ _ _ _ _ _ _ _ _ _ _ ",
"_ _ _ _ _ _ _ _ _ _ _ _ _ _ _ _ _ _ _ _ _ _ O i _ _ _ _ _ _ _ _ _ _ _ _ _ _ _ A O _ _ _ _ _ _ _ _ _ _ _ _ _ _ _ _ _ _ _ _ _ _ _ ",
"_ _ _ _ _ _ _ _ _ _ _ _ _ _ _ _ _ _ _ _ _ _ O ' _ _ _ _ _ _ _ _ _ _ _ _ _ _ _ _ O _ _ _ _ _ _ _ _ _ _ _ _ _ _ _ _ _ _ _ _ _ _ _ ",
"_ _ _ _ _ _ _ _ _ _ _ _ _ _ _ _ _ _ ~ _ ' 2 O _ _ _ _ _ _ _ _ _ _ _ _ _ _ _ _ ~ O ~ _ _ _ _ _ _ _ _ _ _ _ _ _ _ _ _ _ _ _ _ _ _ ",
"_ _ _ _ _ _ _ _ _ _ _ _   _ _ ~ ; @ O   E M @ _ _ _ _ _ _ _ _ _ _ _ _ _ _ _ _ ~ O O X   g _ _ _ _ _ ~ _ _ _ _ _ _ _ _ _ _ _ _ _ ",
"_ _ _ _ _ _ _ _ _ _ _ _ @ O O ; ~ _ _ _ _ v O ~ _ _ _ _ _ _ _ _ _ _ _ _ _ _ _ _ O ~ _ ~ L O O @ ~ _ ~ n _ _ _ _ _ _ _ _ _ _ _ _ ",
"_ _ _ _ _ _ _ _ _ _ _ _ O _ _ _ _ _ _ _ ~ k O ~ _ _ _ _ _ _ _ _ _ _ _ _ _ _ _ _ X _ _ _ _ _ _ ' H . O O _ _ _ _ _ _ _ _ _ _ _ _ ",
"_ _ _ _ _ _ _ _ _ _ _ _ ^ ' _ _ _ _ _ _ _ L O _ _ _ _ _ _ _ _ _ _ _ _ _ _ _ _ _ O ~ _ _ _ _ _ _ _ _ _ O _ _ _ _ _ _ _ _ _ _ _ _ ",
"_ _ _ _ _ _ _ _ _ _ _ _ _ _ _ _ _ _ _ _ _ _ O ~ _ _ _ _ _ _ _ _ _ _ _ _ _ _ _ _   _ _ _ _ _ _ _ _ _ _ O ~ _ _ _ _ _ _ _ _ _ _ _ ",
"_ _ _ _ _ _ _ _ _ _ _ _ _ _ _ _ _ _ _ _ _ _ X ~ _ _ _ _ _ _ _ _ _ _ _ _ _ _ _ i O _ _ _ _ _ _ _ _ _ _ B _ _ _ _ _ _ _ _ _ _ _ _ ",
"_ _ _ _ _ _ _ _ _ _ _ _ _ _ _ _ _ _ _ _ _ _ O @ _ _ _ _ _ _ _ _ _ _ _ _ _ _ _ O W _ _ _ _ _ _ _ _ _ _ _ _ _ _ _ _ _ _ _ _ _ _ _ ",
"_ _ _ _ _ _ _ _ _ _ _ _ _ _ _ _ _ _ _ _ _ _ _ O _ _ _ _ _ _ _ _ _ _ _ _ _ _ L O _ _ _ _ _ _ _ _ _ _ _ _ _ _ _ _ _ _ _ _ _ _ _ _ ",
"_ _ _ _ _ _ _ _ _ _ _ _ _ _ _ _ _ _ _ _ _ _ _ @ = _ _ _ _ _ _ _ _ _ _ _ _ _ O a _ _ _ _ _ _ _ _ _ _ _ _ _ _ _ _ _ _ _ _ _ _ _ _ ",
"_ _ _ _ _ _ _ _ _ _ _ _ _ _ _ _ _ _ _ _ _ _ _ _ O ' _ _ _ _ _ _ _ _ _ _ _ X O ~ _ _ _ _ _ _ _ _ _ _ _ _ _ _ _ _ _ _ _ _ _ _ _ _ ",
"_ _ _ _ _ _ _ _ _ _ _ _ _ _ _ _ _ _ _ _ _ _ _ _ T O ^ _ _ _ _ _ _ _ _ _ # O ' _ _ _ _ _ _ _ _ _ _ _ _ _ _ _ _ _ _ _ _ _ _ _ _ _ ",
"_ _ _ _ _ _ _ _ _ _ _ _ _ _ _ _ _ _ _ _ _ _ _ _ ' 4 O ; _ _ _ _ _ _ ! O O R _ _ _ _ _ _ _ _ _ _ _ _ _ _ _ _ _ _ _ _ _ _ _ _ _ _ ",
"_ _ _ _ _ _ _ _ _ _ _ _ _ _ _ _ _ _ _ _ _ _ _ _ _ _ G O O   M ^ h O O @ B ' _ _ _ _ _ _ _ _ _ _ _ _ _ _ _ _ _ _ _ _ _ _ _ _ _ _ ",
"_ _ _ _ _ _ _ _ _ _ _ _ _ _ _ _ _ _ _ _ _ _ _ _ _ _ _ ! % O O O O O @ _ ' _ _ _ _ _ _ _ _ _ _ _ _ _ _ _ _ _ _ _ _ _ _ _ _ _ _ _ ",
"_ _ _ _ _ _ _ _ _ _ _ _ _ _ _ _ _ _ _ _ _ _ _ _ _ _ _ _ _ _ ~ _ ~ _ _ _ _ _ _ _ _ _ _ _ _ _ _ _ _ _ _ _ _ _ _ _ _ _ _ _ _ _ _ _ "
};
